<?xml version="1.0" encoding="utf-8"?>
<!-- Generator: Adobe Illustrator 24.2.3, SVG Export Plug-In . SVG Version: 6.00 Build 0)  -->
<svg version="1.1" id="Layer_1" xmlns="http://www.w3.org/2000/svg" xmlns:xlink="http://www.w3.org/1999/xlink" x="0px" y="0px"
	 viewBox="0 0 512 512" style="enable-background:new 0 0 512 512;" xml:space="preserve">
<style type="text/css">
	.st0{fill:#FFFFFF;}
</style>
<g>
	<path class="st0" d="M250.1,160.5c3,0,9.9-4.7,20.7-13.9c10.8-9.3,16.3-15.6,16.3-18.8c0-3.2-5.4-9.4-16.1-18.6
		c-10.7-9.2-17.5-13.7-20.5-13.7c-3,0-9.9,4.7-20.7,13.9c-10.9,9.3-16.3,15.6-16.3,18.8c0,3.2,5.3,9.4,16.1,18.6
		C240.3,155.9,247.1,160.5,250.1,160.5z"/>
	<path class="st0" d="M282.4,363.3c-3.4-7.9-5.1-19-5.1-33.4V183.7h-55.8v164.4c0,29.6,10.1,52.4,30.4,68.5l46.5-32.5
		C291.1,378.1,285.8,371.2,282.4,363.3z"/>
	<path class="st0" d="M256,16.4C123.7,16.4,16.4,123.7,16.4,256S123.7,495.6,256,495.6S495.6,388.3,495.6,256S388.3,16.4,256,16.4z
		 M256,445.6c-104.7,0-189.6-84.9-189.6-189.6S151.3,66.4,256,66.4S445.6,151.3,445.6,256S360.7,445.6,256,445.6z"/>
</g>
</svg>
