<?xml version="1.0" encoding="utf-8"?>
<!-- Generator: Adobe Illustrator 24.2.3, SVG Export Plug-In . SVG Version: 6.00 Build 0)  -->
<svg version="1.1" id="Layer_1" xmlns="http://www.w3.org/2000/svg" xmlns:xlink="http://www.w3.org/1999/xlink" x="0px" y="0px"
	 viewBox="0 0 512 512" style="enable-background:new 0 0 512 512;" xml:space="preserve">
<style type="text/css">
	.st0{fill:#54345B;}
</style>
<path class="st0" d="M349.9,194.5h23.8v38.9l66.7-68.5l-66.7-67v44.4h-23.8c-68.1,0-106.5,50.9-140.4,95.9
	c-30.4,40.4-56.8,78.5-99.2,78.5H71.7v52.1h38.6c68.1,0,106.5-54.1,140.4-99.1C281.1,229.4,307.4,194.5,349.9,194.5L349.9,194.5z
	 M171.4,224.3c2.9-3.8,5.8-7.7,8.8-11.6c7.2-9.5,14.8-19.7,23-29.7c-24.4-23-53.7-39.9-93-39.9H71.7v52.1c0,0,10.9-0.5,38.6,0
	C137,195.8,153.8,206.8,171.4,224.3z M373.7,317.2h-23.8c-25.9,0-45.8-13-64.4-32.3c-1.8,2.5-3.7,4.9-5.6,7.4
	c-8.1,10.8-16.9,22.4-26.5,33.8c25,24.6,55.3,43.2,96.4,43.2h23.8V414l66.7-67l-66.7-68.5V317.2L373.7,317.2z"/>
</svg>
